<svg width="64" height="64" viewBox="0 0 64 64" fill="none" xmlns="http://www.w3.org/2000/svg">
  <rect width="64" height="64" rx="32" fill="#090909"/>
  <rect x="4" y="4" width="56" height="56" rx="28" stroke="#D6B15F" stroke-width="2"/>
  <path d="M18 43V20H31C35.4 20 38.2 22.5 38.2 26.2C38.2 28.6 37 30.4 34.9 31.4C37.7 32.2 39.4 34.3 39.4 37.1C39.4 40.8 36.4 43 31.6 43H18ZM23.4 29.4H30.1C31.9 29.4 33 28.5 33 26.9C33 25.4 31.9 24.5 30.1 24.5H23.4V29.4ZM23.4 38.5H30.8C32.8 38.5 33.9 37.6 33.9 36C33.9 34.3 32.8 33.4 30.8 33.4H23.4V38.5Z" fill="#F8F6F0"/>
  <path d="M42.5 44C41 44 39.7 43.7 38.6 43.1V38.6C39.6 39.3 40.8 39.7 42.1 39.7C44.1 39.7 45.1 38.7 45.1 36.6V20H50.5V36.8C50.5 41.5 47.6 44 42.5 44Z" fill="#D6B15F"/>
</svg>
